<svg xmlns="http://www.w3.org/2000/svg" viewBox="0 0 1024 1024">
  <defs>
    <linearGradient id="g" x1="0" x2="1" y1="0" y2="1">
      <stop offset="0" stop-color="#75d9ff"/>
      <stop offset="0.55" stop-color="#2b79ff"/>
      <stop offset="1" stop-color="#9af2b6"/>
    </linearGradient>
    <radialGradient id="r" cx="35%" cy="25%" r="65%">
      <stop offset="0" stop-color="#ffffff" stop-opacity="0.55"/>
      <stop offset="1" stop-color="#ffffff" stop-opacity="0"/>
    </radialGradient>
  </defs>
  <rect width="1024" height="1024" rx="230" fill="#07111f"/>
  <rect x="76" y="76" width="872" height="872" rx="190" fill="url(#g)" opacity="0.96"/>
  <rect x="76" y="76" width="872" height="872" rx="190" fill="url(#r)"/>
  <circle cx="800" cy="190" r="115" fill="#ffffff" opacity="0.18"/>
  <path d="M255 628c0 98 76 171 184 171 77 0 139-35 171-94l-87-49c-17 31-47 50-84 50-51 0-88-35-88-78s37-78 88-78c36 0 67 18 84 49l87-49c-32-59-94-94-171-94-108 0-184 73-184 172z" fill="#061321"/>
  <path d="M330 339h183c101 0 166 56 166 143 0 88-65 145-166 145h-79v139H330V339zm175 205c44 0 69-23 69-62 0-38-25-60-69-60h-71v122h71z" fill="#061321"/>
  <path d="M250 252h524" stroke="#061321" stroke-width="42" stroke-linecap="round" opacity="0.45"/>
  <path d="M250 252h310" stroke="#ffffff" stroke-width="18" stroke-linecap="round" opacity="0.40"/>
</svg>
